{
  "accessors": [
    {
      "bufferView": 2,
      "componentType": 5126,
      "count": 7656,
      "max": [
        0.8611562848091125,
        0.47399333119392395,
        2.8808555603027344
      ],
      "min": [
        -1.2278499603271484,
        -0.5683821439743042,
        0.9292433261871338
      ],
      "type": "VEC3"
    },
    {
      "bufferView": 2,
      "byteOffset": 91872,
      "componentType": 5126,
      "count": 7656,
      "max": [
        0.9999517798423767,
        0.9999299049377441,
        0.9999405145645142
      ],
      "min": [
        -0.9997803568840027,
        -0.9997414946556091,
        -0.9909490346908569
      ],
      "type": "VEC3"
    },
    {
      "bufferView": 1,
      "componentType": 5126,
      "count": 7656,
      "max": [
        0.0,
        0.0
      ],
      "min": [
        0.0,
        0.0
      ],
      "type": "VEC2"
    },
    {
      "bufferView": 0,
      "componentType": 5125,
      "count": 45936,
      "type": "SCALAR"
    },
    {
      "bufferView": 2,
      "byteOffset": 183744,
      "componentType": 5126,
      "count": 65532,
      "max": [
        0.8068446516990662,
        0.6514769196510315,
        2.873889684677124
      ],
      "min": [
        -2.369950294494629,
        0.02966151013970375,
        -0.1323653757572174
      ],
      "type": "VEC3"
    },
    {
      "bufferView": 2,
      "byteOffset": 970128,
      "componentType": 5126,
      "count": 65532,
      "max": [
        0.9998996257781982,
        0.9999885559082031,
        0.9999821782112122
      ],
      "min": [
        -0.9998994469642639,
        -0.9999755024909973,
        -0.9999827146530151
      ],
      "type": "VEC3"
    },
    {
      "bufferView": 1,
      "byteOffset": 61248,
      "componentType": 5126,
      "count": 65532,
      "max": [
        1.0000001192092896,
        1.0000051259994507
      ],
      "min": [
        0.0,
        2.220446049250313e-16
      ],
      "type": "VEC2"
    },
    {
      "bufferView": 0,
      "byteOffset": 183744,
      "componentType": 5125,
      "count": 372957,
      "type": "SCALAR"
    },
    {
      "bufferView": 2,
      "byteOffset": 1756512,
      "componentType": 5126,
      "count": 15099,
      "max": [
        0.7616472244262695,
        0.6443424820899963,
        2.8453197479248047
      ],
      "min": [
        -2.370041608810425,
        0.028932295739650726,
        -0.1323653757572174
      ],
      "type": "VEC3"
    },
    {
      "bufferView": 2,
      "byteOffset": 1937700,
      "componentType": 5126,
      "count": 15099,
      "max": [
        0.985035240650177,
        0.9911162853240967,
        0.9946974515914917
      ],
      "min": [
        -0.9899128079414368,
        -0.9973191022872925,
        -0.9999827146530151
      ],
      "type": "VEC3"
    },
    {
      "bufferView": 1,
      "byteOffset": 585504,
      "componentType": 5126,
      "count": 15099,
      "max": [
        1.0000001192092896,
        1.0000033378601074
      ],
      "min": [
        0.0,
        0.01000000536441803
      ],
      "type": "VEC2"
    },
    {
      "bufferView": 0,
      "byteOffset": 1675572,
      "componentType": 5125,
      "count": 81507,
      "type": "SCALAR"
    },
    {
      "bufferView": 2,
      "byteOffset": 2118888,
      "componentType": 5126,
      "count": 2454,
      "max": [
        0.5541338324546814,
        0.4537922143936157,
        2.7800047397613525
      ],
      "min": [
        -0.751591145992279,
        -0.1818038672208786,
        0.003804831299930811
      ],
      "type": "VEC3"
    },
    {
      "bufferView": 2,
      "byteOffset": 2148336,
      "componentType": 5126,
      "count": 2454,
      "max": [
        0.9999886751174927,
        0.9999756217002869,
        1.0
      ],
      "min": [
        -0.9999962449073792,
        -0.9997093677520752,
        -0.9999991655349731
      ],
      "type": "VEC3"
    },
    {
      "bufferView": 1,
      "byteOffset": 706296,
      "componentType": 5126,
      "count": 2454,
      "max": [
        1.0000001192092896,
        1.000000238418579
      ],
      "min": [
        0.4999999403953552,
        0.4999999701976776
      ],
      "type": "VEC2"
    },
    {
      "bufferView": 0,
      "byteOffset": 2001600,
      "componentType": 5125,
      "count": 12672,
      "type": "SCALAR"
    },
    {
      "bufferView": 2,
      "byteOffset": 2177784,
      "componentType": 5126,
      "count": 2688,
      "max": [
        0.6790295243263245,
        0.7754119634628296,
        4.60279655456543
      ],
      "min": [
        -0.6790295839309692,
        -0.2519204616546631,
        2.7153186798095703
      ],
      "type": "VEC3"
    },
    {
      "bufferView": 2,
      "byteOffset": 2210040,
      "componentType": 5126,
      "count": 2688,
      "max": [
        0.9999863505363464,
        0.9995301365852356,
        0.9930161237716675
      ],
      "min": [
        -0.9999863505363464,
        -0.9976938962936401,
        -0.9951065182685852
      ],
      "type": "VEC3"
    },
    {
      "bufferView": 1,
      "byteOffset": 725928,
      "componentType": 5126,
      "count": 2688,
      "max": [
        0.9990831017494202,
        0.9999000430107117
      ],
      "min": [
        9.995019354391843e-05,
        9.993727144319564e-05
      ],
      "type": "VEC2"
    },
    {
      "bufferView": 0,
      "byteOffset": 2052288,
      "componentType": 5125,
      "count": 13632,
      "type": "SCALAR"
    }
  ],
  "asset": {
    "extras": {
      "author": "Lunorvyn (https://sketchfab.com/Lunorvyn)",
      "license": "CC-BY-4.0 (http://creativecommons.org/licenses/by/4.0/)",
      "source": "https://sketchfab.com/3d-models/hornet-hollow-knight-21289ed448a64138a4a8a6ce23f068b7",
      "title": "Hornet - Hollow Knight"
    },
    "generator": "Sketchfab-16.72.0",
    "version": "2.0"
  },
  "bufferViews": [
    {
      "buffer": 0,
      "byteLength": 2106816,
      "name": "floatBufferViews",
      "target": 34963
    },
    {
      "buffer": 0,
      "byteLength": 747432,
      "byteOffset": 2106816,
      "byteStride": 8,
      "name": "floatBufferViews",
      "target": 34962
    },
    {
      "buffer": 0,
      "byteLength": 2242296,
      "byteOffset": 2854248,
      "byteStride": 12,
      "name": "floatBufferViews",
      "target": 34962
    }
  ],
  "buffers": [
    {
      "byteLength": 5096544,
      "uri": "scene.bin"
    }
  ],
  "images": [
    {
      "uri": "textures/Material.002_baseColor.png"
    }
  ],
  "materials": [
    {
      "doubleSided": true,
      "name": "Material.001",
      "pbrMetallicRoughness": {
        "baseColorFactor": [
          0.211674,
          0.0236236,
          0.0369888,
          1.0
        ],
        "metallicFactor": 0.0,
        "roughnessFactor": 0.9855621378397906
      }
    },
    {
      "doubleSided": true,
      "name": "Material.005",
      "pbrMetallicRoughness": {
        "baseColorFactor": [
          0.8,
          0.8,
          0.8,
          1.0
        ],
        "metallicFactor": 0.0,
        "roughnessFactor": 0.8211145618000169
      }
    },
    {
      "doubleSided": true,
      "name": "Material",
      "pbrMetallicRoughness": {
        "baseColorFactor": [
          0.00724512,
          0.00724512,
          0.00724512,
          1.0
        ],
        "metallicFactor": 0.0
      }
    },
    {
      "doubleSided": true,
      "name": "Material.002",
      "pbrMetallicRoughness": {
        "baseColorTexture": {
          "index": 0
        },
        "metallicFactor": 0.0
      }
    }
  ],
  "meshes": [
    {
      "name": "Circle_Material.001_0",
      "primitives": [
        {
          "attributes": {
            "NORMAL": 1,
            "POSITION": 0,
            "TEXCOORD_0": 2
          },
          "indices": 3,
          "material": 0,
          "mode": 4
        }
      ]
    },
    {
      "name": "Torus.001_Material.005_0",
      "primitives": [
        {
          "attributes": {
            "NORMAL": 5,
            "POSITION": 4,
            "TEXCOORD_0": 6
          },
          "indices": 7,
          "material": 1,
          "mode": 4
        }
      ]
    },
    {
      "name": "Torus.001_Material.005_0",
      "primitives": [
        {
          "attributes": {
            "NORMAL": 9,
            "POSITION": 8,
            "TEXCOORD_0": 10
          },
          "indices": 11,
          "material": 1,
          "mode": 4
        }
      ]
    },
    {
      "name": "body_Material_0",
      "primitives": [
        {
          "attributes": {
            "NORMAL": 13,
            "POSITION": 12,
            "TEXCOORD_0": 14
          },
          "indices": 15,
          "material": 2,
          "mode": 4
        }
      ]
    },
    {
      "name": "head_Material.002_0",
      "primitives": [
        {
          "attributes": {
            "NORMAL": 17,
            "POSITION": 16,
            "TEXCOORD_0": 18
          },
          "indices": 19,
          "material": 3,
          "mode": 4
        }
      ]
    }
  ],
  "nodes": [
    {
      "children": [
        1
      ],
      "matrix": [
        1.0,
        0.0,
        0.0,
        0.0,
        0.0,
        2.220446049250313e-16,
        -1.0,
        0.0,
        0.0,
        1.0,
        2.220446049250313e-16,
        0.0,
        0.0,
        0.0,
        0.0,
        1.0
      ],
      "name": "Sketchfab_model"
    },
    {
      "children": [
        2
      ],
      "matrix": [
        0.009999999776482582,
        0.0,
        0.0,
        0.0,
        0.0,
        0.0,
        0.009999999776482582,
        0.0,
        0.0,
        -0.009999999776482582,
        0.0,
        0.0,
        0.0,
        0.0,
        0.0,
        1.0
      ],
      "name": "5f448c14168947c89e22cbf12e00f570.fbx"
    },
    {
      "children": [
        3,
        5,
        8,
        10
      ],
      "name": "RootNode"
    },
    {
      "children": [
        4
      ],
      "matrix": [
        100.0,
        0.0,
        0.0,
        0.0,
        0.0,
        -1.629206793918314e-05,
        -99.99999999999868,
        0.0,
        0.0,
        99.99999999999868,
        -1.629206793918314e-05,
        0.0,
        0.0,
        0.0,
        0.0,
        1.0
      ],
      "name": "Circle"
    },
    {
      "mesh": 0,
      "name": "Circle_Material.001_0"
    },
    {
      "children": [
        6,
        7
      ],
      "matrix": [
        100.0,
        0.0,
        0.0,
        0.0,
        0.0,
        -1.629206793918314e-05,
        -99.99999999999868,
        0.0,
        0.0,
        99.99999999999868,
        -1.629206793918314e-05,
        0.0,
        0.0,
        0.0,
        0.0,
        1.0
      ],
      "name": "Torus.001"
    },
    {
      "mesh": 1,
      "name": "Torus.001_Material.005_0"
    },
    {
      "mesh": 2,
      "name": "Torus.001_Material.005_0"
    },
    {
      "children": [
        9
      ],
      "matrix": [
        100.0,
        0.0,
        0.0,
        0.0,
        0.0,
        -1.629206793918314e-05,
        -99.99999999999868,
        0.0,
        0.0,
        99.99999999999868,
        -1.629206793918314e-05,
        0.0,
        0.0,
        0.0,
        0.0,
        1.0
      ],
      "name": "body"
    },
    {
      "mesh": 3,
      "name": "body_Material_0"
    },
    {
      "children": [
        11
      ],
      "matrix": [
        100.0,
        0.0,
        0.0,
        0.0,
        0.0,
        -1.629206793918314e-05,
        -99.99999999999868,
        0.0,
        0.0,
        99.99999999999868,
        -1.629206793918314e-05,
        0.0,
        0.0,
        0.0,
        0.0,
        1.0
      ],
      "name": "head"
    },
    {
      "mesh": 4,
      "name": "head_Material.002_0"
    }
  ],
  "samplers": [
    {
      "magFilter": 9729,
      "minFilter": 9987,
      "wrapS": 10497,
      "wrapT": 10497
    }
  ],
  "scene": 0,
  "scenes": [
    {
      "name": "Sketchfab_Scene",
      "nodes": [
        0
      ]
    }
  ],
  "textures": [
    {
      "sampler": 0,
      "source": 0
    }
  ]
}
